G75*
%MOIN*%
%OFA0B0*%
%FSLAX26Y26*%
%IPPOS*%
%LPD*%
%AMOC8*
5,1,8,0,0,1.08239X$1,22.5*
%
%ADD10C,0.051496*%
%ADD11OC8,0.074000*%
%ADD12C,0.060000*%
%ADD13OC8,0.060000*%
%ADD14C,0.030000*%
%ADD15R,0.039622X0.039622*%
D10*
X00450000Y00800000D03*
X00450000Y00900000D03*
X00450000Y01000000D03*
X00450000Y01100000D03*
X00450000Y01200000D03*
X00450000Y01300000D03*
X00850000Y01300000D03*
X00850000Y01200000D03*
X00850000Y01100000D03*
X00850000Y01000000D03*
X00850000Y00900000D03*
X00850000Y00800000D03*
X01350000Y00800000D03*
X01350000Y00900000D03*
X01350000Y01000000D03*
X01350000Y01100000D03*
X01350000Y01200000D03*
X01350000Y01300000D03*
X01750000Y01300000D03*
X01750000Y01200000D03*
X01750000Y01100000D03*
X01750000Y01000000D03*
X01750000Y00900000D03*
X01750000Y00800000D03*
D11*
X00750000Y00450000D03*
X00750000Y00350000D03*
X00650000Y00350000D03*
X00550000Y00350000D03*
X00550000Y00450000D03*
X00650000Y00450000D03*
X00450000Y00450000D03*
X00350000Y00450000D03*
X00350000Y00350000D03*
X00450000Y00350000D03*
D12*
X00400000Y01770000D02*
X00400000Y01830000D01*
X00300000Y01830000D02*
X00300000Y01770000D01*
X00200000Y01770000D02*
X00200000Y01830000D01*
X00700000Y01830000D02*
X00700000Y01770000D01*
X00800000Y01770000D02*
X00800000Y01830000D01*
X00900000Y01830000D02*
X00900000Y01770000D01*
X01250000Y01770000D02*
X01250000Y01830000D01*
X01350000Y01830000D02*
X01350000Y01770000D01*
X01450000Y01770000D02*
X01450000Y01830000D01*
X01800000Y01830000D02*
X01800000Y01770000D01*
X01900000Y01770000D02*
X01900000Y01830000D01*
X02000000Y01830000D02*
X02000000Y01770000D01*
D13*
X01850000Y00450000D03*
X01850000Y00350000D03*
X01750000Y00350000D03*
X01650000Y00350000D03*
X01650000Y00450000D03*
X01750000Y00450000D03*
X01550000Y00450000D03*
X01450000Y00450000D03*
X01450000Y00350000D03*
X01550000Y00350000D03*
X01350000Y00350000D03*
X01350000Y00450000D03*
D14*
X00055000Y00055000D02*
X00055000Y01994606D01*
X02082008Y01994606D01*
X02082008Y00055000D01*
X00055000Y00055000D01*
X00055000Y00059997D02*
X02082008Y00059997D01*
X02082008Y00089996D02*
X00055000Y00089996D01*
X00055000Y00119994D02*
X02082008Y00119994D01*
X02082008Y00149993D02*
X00544369Y00149993D01*
X00544289Y00149753D02*
X00546873Y00157506D01*
X00550000Y00165054D01*
X00550000Y00166886D01*
X00590645Y00288822D01*
X00600000Y00298177D01*
X00600000Y00288388D01*
X00595189Y00276773D01*
X00595189Y00223227D01*
X00600517Y00210363D01*
X00610363Y00200517D01*
X00623227Y00195189D01*
X00676773Y00195189D01*
X00689637Y00200517D01*
X00699483Y00210363D01*
X00704811Y00223227D01*
X00704811Y00276773D01*
X00700000Y00288388D01*
X00700000Y00298177D01*
X00707071Y00305248D01*
X00724319Y00288000D01*
X00749999Y00288000D01*
X00749999Y00349999D01*
X00750000Y00349999D01*
X00750000Y00288000D01*
X00775681Y00288000D01*
X00812000Y00324319D01*
X00812000Y00349999D01*
X00750001Y00349999D01*
X00750001Y00350000D01*
X00812000Y00350000D01*
X00812000Y00375681D01*
X00794752Y00392929D01*
X00822000Y00420177D01*
X00822000Y00479823D01*
X00779823Y00522000D01*
X00775000Y00522000D01*
X00775000Y00625000D01*
X00934946Y00625000D01*
X00953323Y00632612D01*
X00967388Y00646677D01*
X01302543Y00981833D01*
X01302970Y00980519D01*
X01306596Y00973402D01*
X01311292Y00966940D01*
X01316940Y00961292D01*
X01323402Y00956596D01*
X01325416Y00955570D01*
X01315589Y00951500D01*
X01298500Y00934411D01*
X01289252Y00912084D01*
X01289252Y00909963D01*
X01246677Y00867388D01*
X01232612Y00853323D01*
X01225000Y00834946D01*
X01225000Y00415054D01*
X01232612Y00396677D01*
X01285000Y00344289D01*
X01285000Y00323076D01*
X01323076Y00285000D01*
X01376924Y00285000D01*
X01400000Y00308076D01*
X01423076Y00285000D01*
X01476924Y00285000D01*
X01500000Y00308076D01*
X01523076Y00285000D01*
X01576924Y00285000D01*
X01600000Y00308076D01*
X01623076Y00285000D01*
X01676924Y00285000D01*
X01700000Y00308076D01*
X01723076Y00285000D01*
X01776924Y00285000D01*
X01800000Y00308076D01*
X01823076Y00285000D01*
X01876924Y00285000D01*
X01915000Y00323076D01*
X01915000Y00376924D01*
X01891924Y00400000D01*
X01915000Y00423076D01*
X01915000Y00476924D01*
X01900000Y00491924D01*
X01900000Y00609946D01*
X01892388Y00628323D01*
X01775784Y00744927D01*
X01784411Y00748500D01*
X01801500Y00765589D01*
X01810748Y00787916D01*
X01810748Y00790037D01*
X02028323Y01007612D01*
X02042388Y01021677D01*
X02050000Y01040054D01*
X02050000Y01728076D01*
X02055104Y01733180D01*
X02065000Y01757071D01*
X02065000Y01842929D01*
X02055104Y01866820D01*
X02036820Y01885104D01*
X02012929Y01895000D01*
X01987071Y01895000D01*
X01963180Y01885104D01*
X01950000Y01871924D01*
X01936820Y01885104D01*
X01912929Y01895000D01*
X01887071Y01895000D01*
X01863180Y01885104D01*
X01844896Y01866820D01*
X01843566Y01863608D01*
X01841952Y01865830D01*
X01835830Y01871952D01*
X01828826Y01877040D01*
X01821113Y01880970D01*
X01812879Y01883646D01*
X01804329Y01885000D01*
X01800000Y01885000D01*
X01800000Y01800001D01*
X01799999Y01800001D01*
X01799999Y01885000D01*
X01795671Y01885000D01*
X01787121Y01883646D01*
X01778887Y01880970D01*
X01771174Y01877040D01*
X01764170Y01871952D01*
X01758048Y01865830D01*
X01752960Y01858826D01*
X01749030Y01851113D01*
X01746354Y01842879D01*
X01745000Y01834329D01*
X01745000Y01800000D01*
X01799999Y01800000D01*
X01799999Y01799999D01*
X01800000Y01799999D01*
X01800000Y01715000D01*
X01804329Y01715000D01*
X01812879Y01716354D01*
X01821113Y01719030D01*
X01828826Y01722960D01*
X01835830Y01728048D01*
X01841952Y01734170D01*
X01843566Y01736392D01*
X01844896Y01733180D01*
X01850000Y01728076D01*
X01850000Y01470710D01*
X01515000Y01805711D01*
X01515000Y01842929D01*
X01505104Y01866820D01*
X01486820Y01885104D01*
X01462929Y01895000D01*
X01437071Y01895000D01*
X01413180Y01885104D01*
X01400000Y01871924D01*
X01386820Y01885104D01*
X01362929Y01895000D01*
X01337071Y01895000D01*
X01313180Y01885104D01*
X01294896Y01866820D01*
X01293566Y01863608D01*
X01291952Y01865830D01*
X01285830Y01871952D01*
X01278826Y01877040D01*
X01271113Y01880970D01*
X01262879Y01883646D01*
X01254329Y01885000D01*
X01250000Y01885000D01*
X01250000Y01800001D01*
X01249999Y01800001D01*
X01249999Y01885000D01*
X01245671Y01885000D01*
X01237121Y01883646D01*
X01228887Y01880970D01*
X01221174Y01877040D01*
X01214170Y01871952D01*
X01208048Y01865830D01*
X01202960Y01858826D01*
X01199030Y01851113D01*
X01196354Y01842879D01*
X01195000Y01834329D01*
X01195000Y01800000D01*
X01249999Y01800000D01*
X01249999Y01799999D01*
X01250000Y01799999D01*
X01250000Y01715000D01*
X01254329Y01715000D01*
X01262879Y01716354D01*
X01271113Y01719030D01*
X01278826Y01722960D01*
X01285830Y01728048D01*
X01291952Y01734170D01*
X01293566Y01736391D01*
X01294896Y01733180D01*
X01313180Y01714896D01*
X01337071Y01705000D01*
X01349289Y01705000D01*
X01700000Y01354289D01*
X01700000Y01335911D01*
X01698500Y01334411D01*
X01689252Y01312084D01*
X01689252Y01287916D01*
X01698500Y01265589D01*
X01714089Y01250000D01*
X01698500Y01234411D01*
X01694927Y01225784D01*
X01503323Y01417388D01*
X01484946Y01425000D01*
X01315054Y01425000D01*
X01296677Y01417388D01*
X01282612Y01403323D01*
X01232612Y01353323D01*
X01225000Y01334946D01*
X01225000Y01145711D01*
X01075000Y00995710D01*
X01075000Y01684946D01*
X01067388Y01703323D01*
X00965000Y01805711D01*
X00965000Y01842929D01*
X00955104Y01866820D01*
X00936820Y01885104D01*
X00912929Y01895000D01*
X00887071Y01895000D01*
X00863180Y01885104D01*
X00850000Y01871924D01*
X00836820Y01885104D01*
X00812929Y01895000D01*
X00787071Y01895000D01*
X00763180Y01885104D01*
X00744896Y01866820D01*
X00743566Y01863608D01*
X00741952Y01865830D01*
X00735830Y01871952D01*
X00728826Y01877040D01*
X00721113Y01880970D01*
X00712879Y01883646D01*
X00704329Y01885000D01*
X00700000Y01885000D01*
X00700000Y01800001D01*
X00699999Y01800001D01*
X00699999Y01885000D01*
X00695671Y01885000D01*
X00687121Y01883646D01*
X00678887Y01880970D01*
X00671174Y01877040D01*
X00664170Y01871952D01*
X00658048Y01865830D01*
X00652960Y01858826D01*
X00649030Y01851113D01*
X00646354Y01842879D01*
X00645000Y01834329D01*
X00645000Y01800000D01*
X00699999Y01800000D01*
X00699999Y01799999D01*
X00700000Y01799999D01*
X00700000Y01715000D01*
X00704329Y01715000D01*
X00712879Y01716354D01*
X00721113Y01719030D01*
X00728826Y01722960D01*
X00735830Y01728048D01*
X00741952Y01734170D01*
X00743566Y01736391D01*
X00744896Y01733180D01*
X00763180Y01714896D01*
X00787071Y01705000D01*
X00799289Y01705000D01*
X00925000Y01579289D01*
X00925000Y01395710D01*
X00492388Y01828323D01*
X00478323Y01842388D01*
X00462511Y01848937D01*
X00455104Y01866820D01*
X00436820Y01885104D01*
X00412929Y01895000D01*
X00387071Y01895000D01*
X00363180Y01885104D01*
X00350000Y01871924D01*
X00336820Y01885104D01*
X00312929Y01895000D01*
X00287071Y01895000D01*
X00263180Y01885104D01*
X00244896Y01866820D01*
X00243566Y01863608D01*
X00241952Y01865830D01*
X00235830Y01871952D01*
X00228826Y01877040D01*
X00221113Y01880970D01*
X00212879Y01883646D01*
X00204329Y01885000D01*
X00200000Y01885000D01*
X00200000Y01800001D01*
X00199999Y01800001D01*
X00199999Y01885000D01*
X00195671Y01885000D01*
X00187121Y01883646D01*
X00178887Y01880970D01*
X00171174Y01877040D01*
X00164170Y01871952D01*
X00158048Y01865830D01*
X00152960Y01858826D01*
X00149030Y01851113D01*
X00146354Y01842879D01*
X00145000Y01834329D01*
X00145000Y01800000D01*
X00199999Y01800000D01*
X00199999Y01799999D01*
X00200000Y01799999D01*
X00200000Y01715000D01*
X00204329Y01715000D01*
X00212879Y01716354D01*
X00221113Y01719030D01*
X00228826Y01722960D01*
X00235830Y01728048D01*
X00241952Y01734170D01*
X00243566Y01736392D01*
X00244896Y01733180D01*
X00263180Y01714896D01*
X00287071Y01705000D01*
X00299289Y01705000D01*
X00732612Y01271677D01*
X00746677Y01257612D01*
X00765054Y01250000D01*
X00814089Y01250000D01*
X00798500Y01234411D01*
X00789252Y01212084D01*
X00789252Y01187916D01*
X00798500Y01165589D01*
X00814089Y01150000D01*
X00798500Y01134411D01*
X00789252Y01112084D01*
X00789252Y01109962D01*
X00775000Y01095710D01*
X00775000Y01134946D01*
X00767388Y01153323D01*
X00753323Y01167388D01*
X00503323Y01417388D01*
X00484946Y01425000D01*
X00415054Y01425000D01*
X00396677Y01417388D01*
X00382612Y01403323D01*
X00332612Y01353323D01*
X00325000Y01334946D01*
X00325000Y01165054D01*
X00332612Y01146677D01*
X00346677Y01132612D01*
X00389252Y01090037D01*
X00389252Y01087916D01*
X00398500Y01065589D01*
X00415589Y01048500D01*
X00425416Y01044430D01*
X00423402Y01043404D01*
X00416940Y01038708D01*
X00411292Y01033060D01*
X00406596Y01026598D01*
X00402970Y01019480D01*
X00400502Y01011883D01*
X00399252Y01003994D01*
X00399252Y01000000D01*
X00449999Y01000000D01*
X00449999Y00999999D01*
X00399252Y00999999D01*
X00399252Y00996006D01*
X00400502Y00988116D01*
X00402970Y00980519D01*
X00406596Y00973402D01*
X00411292Y00966940D01*
X00416940Y00961292D01*
X00423402Y00956596D01*
X00425416Y00955570D01*
X00415589Y00951500D01*
X00398500Y00934411D01*
X00389252Y00912084D01*
X00389252Y00909963D01*
X00246677Y00767388D01*
X00232612Y00753323D01*
X00225000Y00734946D01*
X00225000Y00304898D01*
X00224020Y00299947D01*
X00225000Y00295049D01*
X00225000Y00290054D01*
X00226931Y00285391D01*
X00250000Y00170049D01*
X00250000Y00165054D01*
X00251932Y00160391D01*
X00252922Y00155442D01*
X00255701Y00151292D01*
X00257612Y00146677D01*
X00261181Y00143108D01*
X00263990Y00138914D01*
X00268146Y00136143D01*
X00271677Y00132612D01*
X00276340Y00130681D01*
X00280540Y00127881D01*
X00285440Y00126911D01*
X00290054Y00125000D01*
X00295101Y00125000D01*
X00300053Y00124020D01*
X00304951Y00125000D01*
X00491886Y00125000D01*
X00493624Y00124421D01*
X00501774Y00125000D01*
X00509946Y00125000D01*
X00511638Y00125701D01*
X00513465Y00125831D01*
X00520774Y00129485D01*
X00528323Y00132612D01*
X00529618Y00133907D01*
X00531256Y00134726D01*
X00536610Y00140900D01*
X00542388Y00146677D01*
X00543089Y00148369D01*
X00544289Y00149753D01*
X00554368Y00179991D02*
X02082008Y00179991D01*
X02082008Y00209990D02*
X00699109Y00209990D01*
X00704811Y00239988D02*
X02082008Y00239988D01*
X02082008Y00269987D02*
X00704811Y00269987D01*
X00701808Y00299985D02*
X00712334Y00299985D01*
X00749999Y00299985D02*
X00750000Y00299985D01*
X00749999Y00329984D02*
X00750000Y00329984D01*
X00750000Y00350000D02*
X00750000Y00075000D01*
X00225000Y00075000D01*
X00225000Y00775000D01*
X00450000Y01000000D01*
X00200000Y01250000D01*
X00200000Y01800000D01*
X00200000Y01825000D01*
X00275000Y01900000D01*
X00425000Y01900000D01*
X00525000Y01800000D01*
X00675000Y01800000D01*
X00700000Y01800000D01*
X00699999Y01799999D02*
X00699999Y01715000D01*
X00695671Y01715000D01*
X00687121Y01716354D01*
X00678887Y01719030D01*
X00671174Y01722960D01*
X00664170Y01728048D01*
X00658048Y01734170D01*
X00652960Y01741174D01*
X00649030Y01748887D01*
X00646354Y01757121D01*
X00645000Y01765671D01*
X00645000Y01799999D01*
X00699999Y01799999D01*
X00699999Y01799911D02*
X00700000Y01799911D01*
X00675000Y01800000D02*
X00775000Y01900000D01*
X00925000Y01900000D01*
X01000000Y01825000D01*
X01250000Y01825000D01*
X01250000Y01800000D01*
X01249999Y01799999D02*
X01249999Y01715000D01*
X01245671Y01715000D01*
X01237121Y01716354D01*
X01228887Y01719030D01*
X01221174Y01722960D01*
X01214170Y01728048D01*
X01208048Y01734170D01*
X01202960Y01741174D01*
X01199030Y01748887D01*
X01196354Y01757121D01*
X01195000Y01765671D01*
X01195000Y01799999D01*
X01249999Y01799999D01*
X01249999Y01799911D02*
X01250000Y01799911D01*
X01249999Y01769913D02*
X01250000Y01769913D01*
X01249999Y01739914D02*
X01250000Y01739914D01*
X01203875Y01739914D02*
X01030796Y01739914D01*
X01000798Y01769913D02*
X01195000Y01769913D01*
X01195000Y01799911D02*
X00970799Y01799911D01*
X00965000Y01829910D02*
X01195000Y01829910D01*
X01203746Y01859908D02*
X00957967Y01859908D01*
X00925225Y01889907D02*
X01324775Y01889907D01*
X01325000Y01900000D02*
X01700000Y01900000D01*
X01800000Y01800000D01*
X01799999Y01799999D02*
X01799999Y01715000D01*
X01795671Y01715000D01*
X01787121Y01716354D01*
X01778887Y01719030D01*
X01771174Y01722960D01*
X01764170Y01728048D01*
X01758048Y01734170D01*
X01752960Y01741174D01*
X01749030Y01748887D01*
X01746354Y01757121D01*
X01745000Y01765671D01*
X01745000Y01799999D01*
X01799999Y01799999D01*
X01799999Y01799911D02*
X01800000Y01799911D01*
X01799999Y01769913D02*
X01800000Y01769913D01*
X01799999Y01739914D02*
X01800000Y01739914D01*
X01753875Y01739914D02*
X01580796Y01739914D01*
X01550797Y01769913D02*
X01745000Y01769913D01*
X01745000Y01799911D02*
X01520799Y01799911D01*
X01515000Y01829910D02*
X01745000Y01829910D01*
X01753746Y01859908D02*
X01507967Y01859908D01*
X01475225Y01889907D02*
X01874775Y01889907D01*
X01925225Y01889907D02*
X01974775Y01889907D01*
X02025225Y01889907D02*
X02082008Y01889907D01*
X02082008Y01919906D02*
X00055000Y01919906D01*
X00055000Y01889907D02*
X00274775Y01889907D01*
X00325225Y01889907D02*
X00374775Y01889907D01*
X00425225Y01889907D02*
X00774775Y01889907D01*
X00825225Y01889907D02*
X00874775Y01889907D01*
X00900000Y01800000D02*
X01025000Y01675000D01*
X01025000Y00975000D01*
X00850000Y00800000D01*
X00825000Y00725000D02*
X00775000Y00775000D01*
X00775000Y01025000D01*
X00850000Y01100000D01*
X00804033Y01139944D02*
X00772930Y01139944D01*
X00775000Y01109945D02*
X00789235Y01109945D01*
X00796697Y01169942D02*
X00750768Y01169942D01*
X00720770Y01199941D02*
X00789252Y01199941D01*
X00796648Y01229939D02*
X00690771Y01229939D01*
X00660773Y01259938D02*
X00744351Y01259938D01*
X00732612Y01271677D02*
X00732612Y01271677D01*
X00714353Y01289937D02*
X00630774Y01289937D01*
X00600775Y01319935D02*
X00684354Y01319935D01*
X00654356Y01349934D02*
X00570777Y01349934D01*
X00540778Y01379932D02*
X00624357Y01379932D01*
X00594359Y01409931D02*
X00510780Y01409931D01*
X00475000Y01375000D02*
X00725000Y01125000D01*
X00725000Y00675000D01*
X00925000Y00675000D01*
X01350000Y01100000D01*
X01374584Y01044430D02*
X01384411Y01048500D01*
X01399274Y01063364D01*
X01400517Y01060363D01*
X01410363Y01050517D01*
X01423227Y01045189D01*
X01476773Y01045189D01*
X01489637Y01050517D01*
X01499483Y01060363D01*
X01504811Y01073227D01*
X01504811Y01126773D01*
X01499483Y01139637D01*
X01489637Y01149483D01*
X01476773Y01154811D01*
X01465900Y01154811D01*
X01425521Y01195189D01*
X01476773Y01195189D01*
X01489637Y01200517D01*
X01499483Y01210363D01*
X01504811Y01223227D01*
X01504811Y01274478D01*
X01679289Y01100000D01*
X01632612Y01053323D01*
X01625000Y01034946D01*
X01625000Y00765054D01*
X01632612Y00746677D01*
X01646677Y00732612D01*
X01800000Y00579289D01*
X01800000Y00491924D01*
X01776924Y00515000D01*
X01723076Y00515000D01*
X01700000Y00491924D01*
X01676924Y00515000D01*
X01623076Y00515000D01*
X01592929Y00484852D01*
X01572782Y00505000D01*
X01550000Y00505000D01*
X01550000Y00450001D01*
X01549999Y00450001D01*
X01549999Y00505000D01*
X01527218Y00505000D01*
X01507071Y00484852D01*
X01476924Y00515000D01*
X01423076Y00515000D01*
X01400000Y00491924D01*
X01400000Y00764089D01*
X01401500Y00765589D01*
X01410748Y00787916D01*
X01410748Y00812084D01*
X01401500Y00834411D01*
X01385911Y00850000D01*
X01401500Y00865589D01*
X01410748Y00887916D01*
X01410748Y00912084D01*
X01401500Y00934411D01*
X01384411Y00951500D01*
X01374584Y00955570D01*
X01376598Y00956596D01*
X01383060Y00961292D01*
X01388708Y00966940D01*
X01393404Y00973402D01*
X01397030Y00980519D01*
X01399498Y00988116D01*
X01400748Y00996006D01*
X01400748Y00999999D01*
X01350001Y00999999D01*
X01350001Y01000000D01*
X01400748Y01000000D01*
X01400748Y01003994D01*
X01399498Y01011883D01*
X01397030Y01019480D01*
X01393404Y01026598D01*
X01388708Y01033060D01*
X01383060Y01038708D01*
X01376598Y01043404D01*
X01374584Y01044430D01*
X01385859Y01049948D02*
X01411737Y01049948D01*
X01396791Y01019950D02*
X01625000Y01019950D01*
X01625000Y00989951D02*
X01399789Y00989951D01*
X01381217Y00959953D02*
X01625000Y00959953D01*
X01625000Y00929954D02*
X01403346Y00929954D01*
X01410748Y00899956D02*
X01625000Y00899956D01*
X01625000Y00869957D02*
X01403309Y00869957D01*
X01395952Y00839959D02*
X01625000Y00839959D01*
X01625000Y00809960D02*
X01410748Y00809960D01*
X01407453Y00779962D02*
X01625000Y00779962D01*
X01631251Y00749963D02*
X01400000Y00749963D01*
X01400000Y00719965D02*
X01659325Y00719965D01*
X01689323Y00689966D02*
X01400000Y00689966D01*
X01400000Y00659968D02*
X01719322Y00659968D01*
X01749320Y00629969D02*
X01400000Y00629969D01*
X01400000Y00599970D02*
X01779319Y00599970D01*
X01800000Y00569972D02*
X01400000Y00569972D01*
X01400000Y00539973D02*
X01800000Y00539973D01*
X01800000Y00509975D02*
X01781949Y00509975D01*
X01718051Y00509975D02*
X01681949Y00509975D01*
X01618051Y00509975D02*
X01481949Y00509975D01*
X01418051Y00509975D02*
X01400000Y00509975D01*
X01400000Y00491924D02*
X01400000Y00491924D01*
X01350000Y00450000D02*
X01350000Y00800000D01*
X01275000Y00825000D02*
X01275000Y00425000D01*
X01350000Y00350000D01*
X01308091Y00299985D02*
X00787666Y00299985D01*
X00812000Y00329984D02*
X01285000Y00329984D01*
X01269307Y00359982D02*
X00812000Y00359982D01*
X00797700Y00389981D02*
X01239308Y00389981D01*
X01225000Y00419979D02*
X00821802Y00419979D01*
X00822000Y00449978D02*
X01225000Y00449978D01*
X01225000Y00479976D02*
X00821847Y00479976D01*
X00791848Y00509975D02*
X01225000Y00509975D01*
X01225000Y00539973D02*
X00775000Y00539973D01*
X00775000Y00569972D02*
X01225000Y00569972D01*
X01225000Y00599970D02*
X00775000Y00599970D01*
X00725000Y00675000D02*
X00725000Y00475000D01*
X00750000Y00450000D01*
X00750000Y00350000D02*
X00775000Y00350000D01*
X01225000Y00800000D01*
X01225000Y00875000D01*
X01350000Y01000000D01*
X01550000Y00800000D01*
X01550000Y00450000D01*
X01549999Y00479976D02*
X01550000Y00479976D01*
X01508091Y00299985D02*
X01491909Y00299985D01*
X01408091Y00299985D02*
X01391909Y00299985D01*
X01591909Y00299985D02*
X01608091Y00299985D01*
X01691909Y00299985D02*
X01708091Y00299985D01*
X01791909Y00299985D02*
X01808091Y00299985D01*
X01891909Y00299985D02*
X02082008Y00299985D01*
X02082008Y00329984D02*
X01915000Y00329984D01*
X01915000Y00359982D02*
X02082008Y00359982D01*
X02082008Y00389981D02*
X01901943Y00389981D01*
X01911903Y00419979D02*
X02082008Y00419979D01*
X02082008Y00449978D02*
X01915000Y00449978D01*
X01911947Y00479976D02*
X02082008Y00479976D01*
X02082008Y00509975D02*
X01900000Y00509975D01*
X01900000Y00539973D02*
X02082008Y00539973D01*
X02082008Y00569972D02*
X01900000Y00569972D01*
X01900000Y00599970D02*
X02082008Y00599970D01*
X02082008Y00629969D02*
X01890742Y00629969D01*
X01860743Y00659968D02*
X02082008Y00659968D01*
X02082008Y00689966D02*
X01830744Y00689966D01*
X01800746Y00719965D02*
X02082008Y00719965D01*
X02082008Y00749963D02*
X01785874Y00749963D01*
X01807453Y00779962D02*
X02082008Y00779962D01*
X02082008Y00809960D02*
X01830671Y00809960D01*
X01860669Y00839959D02*
X02082008Y00839959D01*
X02082008Y00869957D02*
X01890668Y00869957D01*
X01920666Y00899956D02*
X02082008Y00899956D01*
X02082008Y00929954D02*
X01950665Y00929954D01*
X01980663Y00959953D02*
X02082008Y00959953D01*
X02082008Y00989951D02*
X02010662Y00989951D01*
X02040660Y01019950D02*
X02082008Y01019950D01*
X02082008Y01049948D02*
X02050000Y01049948D01*
X02050000Y01079947D02*
X02082008Y01079947D01*
X02082008Y01109945D02*
X02050000Y01109945D01*
X02050000Y01139944D02*
X02082008Y01139944D01*
X02082008Y01169942D02*
X02050000Y01169942D01*
X02050000Y01199941D02*
X02082008Y01199941D01*
X02082008Y01229939D02*
X02050000Y01229939D01*
X02050000Y01259938D02*
X02082008Y01259938D01*
X02082008Y01289937D02*
X02050000Y01289937D01*
X02050000Y01319935D02*
X02082008Y01319935D01*
X02082008Y01349934D02*
X02050000Y01349934D01*
X02050000Y01379932D02*
X02082008Y01379932D01*
X02082008Y01409931D02*
X02050000Y01409931D01*
X02050000Y01439929D02*
X02082008Y01439929D01*
X02082008Y01469928D02*
X02050000Y01469928D01*
X02050000Y01499926D02*
X02082008Y01499926D01*
X02082008Y01529925D02*
X02050000Y01529925D01*
X02050000Y01559923D02*
X02082008Y01559923D01*
X02082008Y01589922D02*
X02050000Y01589922D01*
X02050000Y01619920D02*
X02082008Y01619920D01*
X02082008Y01649919D02*
X02050000Y01649919D01*
X02050000Y01679917D02*
X02082008Y01679917D01*
X02082008Y01709916D02*
X02050000Y01709916D01*
X02057893Y01739914D02*
X02082008Y01739914D01*
X02082008Y01769913D02*
X02065000Y01769913D01*
X02065000Y01799911D02*
X02082008Y01799911D01*
X02082008Y01829910D02*
X02065000Y01829910D01*
X02057967Y01859908D02*
X02082008Y01859908D01*
X02000000Y01800000D02*
X02000000Y01050000D01*
X01750000Y00800000D01*
X01675000Y00775000D02*
X01675000Y01025000D01*
X01750000Y01100000D01*
X01475000Y01375000D01*
X01325000Y01375000D01*
X01275000Y01325000D01*
X01275000Y01125000D01*
X00875000Y00725000D01*
X00825000Y00725000D01*
X00946942Y00629969D02*
X01225000Y00629969D01*
X01225000Y00659968D02*
X00980678Y00659968D01*
X01010677Y00689966D02*
X01225000Y00689966D01*
X01225000Y00719965D02*
X01040675Y00719965D01*
X01070674Y00749963D02*
X01225000Y00749963D01*
X01225000Y00779962D02*
X01100672Y00779962D01*
X01130671Y00809960D02*
X01225000Y00809960D01*
X01227077Y00839959D02*
X01160669Y00839959D01*
X01190668Y00869957D02*
X01249247Y00869957D01*
X01220666Y00899956D02*
X01279245Y00899956D01*
X01296654Y00929954D02*
X01250665Y00929954D01*
X01280663Y00959953D02*
X01318782Y00959953D01*
X01350000Y00900000D02*
X01275000Y00825000D01*
X01099239Y01019950D02*
X01075000Y01019950D01*
X01075000Y01049948D02*
X01129238Y01049948D01*
X01159236Y01079947D02*
X01075000Y01079947D01*
X01075000Y01109945D02*
X01189235Y01109945D01*
X01219233Y01139944D02*
X01075000Y01139944D01*
X01075000Y01169942D02*
X01225000Y01169942D01*
X01225000Y01199941D02*
X01075000Y01199941D01*
X01075000Y01229939D02*
X01225000Y01229939D01*
X01225000Y01259938D02*
X01075000Y01259938D01*
X01075000Y01289937D02*
X01225000Y01289937D01*
X01225000Y01319935D02*
X01075000Y01319935D01*
X01075000Y01349934D02*
X01231208Y01349934D01*
X01259221Y01379932D02*
X01075000Y01379932D01*
X01075000Y01409931D02*
X01289220Y01409931D01*
X01350000Y01300000D02*
X01400000Y01300000D01*
X01450000Y01250000D01*
X01504811Y01259938D02*
X01519351Y01259938D01*
X01504811Y01229939D02*
X01549350Y01229939D01*
X01579348Y01199941D02*
X01488245Y01199941D01*
X01450768Y01169942D02*
X01609347Y01169942D01*
X01639345Y01139944D02*
X01499175Y01139944D01*
X01504811Y01109945D02*
X01669344Y01109945D01*
X01659236Y01079947D02*
X01504811Y01079947D01*
X01488263Y01049948D02*
X01631214Y01049948D01*
X01750000Y00900000D02*
X01900000Y01050000D01*
X01900000Y01800000D01*
X01850000Y01709916D02*
X01610795Y01709916D01*
X01640793Y01679917D02*
X01850000Y01679917D01*
X01850000Y01649919D02*
X01670792Y01649919D01*
X01700790Y01619920D02*
X01850000Y01619920D01*
X01850000Y01589922D02*
X01730789Y01589922D01*
X01760787Y01559923D02*
X01850000Y01559923D01*
X01850000Y01529925D02*
X01790786Y01529925D01*
X01820784Y01499926D02*
X01850000Y01499926D01*
X01825000Y01425000D02*
X01450000Y01800000D01*
X01424775Y01889907D02*
X01375225Y01889907D01*
X01325000Y01900000D02*
X01250000Y01825000D01*
X01249999Y01829910D02*
X01250000Y01829910D01*
X01249999Y01859908D02*
X01250000Y01859908D01*
X01350000Y01800000D02*
X01350000Y01775000D01*
X01750000Y01375000D01*
X01750000Y01300000D01*
X01692504Y01319935D02*
X01600775Y01319935D01*
X01570777Y01349934D02*
X01700000Y01349934D01*
X01674357Y01379932D02*
X01540778Y01379932D01*
X01510780Y01409931D02*
X01644359Y01409931D01*
X01614360Y01439929D02*
X01075000Y01439929D01*
X01075000Y01469928D02*
X01584362Y01469928D01*
X01554363Y01499926D02*
X01075000Y01499926D01*
X01075000Y01529925D02*
X01524365Y01529925D01*
X01494366Y01559923D02*
X01075000Y01559923D01*
X01075000Y01589922D02*
X01464367Y01589922D01*
X01434369Y01619920D02*
X01075000Y01619920D01*
X01075000Y01649919D02*
X01404370Y01649919D01*
X01374372Y01679917D02*
X01075000Y01679917D01*
X01060795Y01709916D02*
X01325203Y01709916D01*
X00975000Y01600000D02*
X00800000Y01775000D01*
X00800000Y01800000D01*
X00775203Y01709916D02*
X00610795Y01709916D01*
X00640793Y01679917D02*
X00824372Y01679917D01*
X00854370Y01649919D02*
X00670792Y01649919D01*
X00700790Y01619920D02*
X00884369Y01619920D01*
X00914367Y01589922D02*
X00730789Y01589922D01*
X00760787Y01559923D02*
X00925000Y01559923D01*
X00925000Y01529925D02*
X00790786Y01529925D01*
X00820784Y01499926D02*
X00925000Y01499926D01*
X00925000Y01469928D02*
X00850783Y01469928D01*
X00880781Y01439929D02*
X00925000Y01439929D01*
X00925000Y01409931D02*
X00910780Y01409931D01*
X00925000Y01325000D02*
X00450000Y01800000D01*
X00400000Y01800000D01*
X00457967Y01859908D02*
X00653746Y01859908D01*
X00645000Y01829910D02*
X00490801Y01829910D01*
X00520799Y01799911D02*
X00645000Y01799911D01*
X00645000Y01769913D02*
X00550798Y01769913D01*
X00580796Y01739914D02*
X00653875Y01739914D01*
X00699999Y01739914D02*
X00700000Y01739914D01*
X00699999Y01769913D02*
X00700000Y01769913D01*
X00699999Y01829910D02*
X00700000Y01829910D01*
X00699999Y01859908D02*
X00700000Y01859908D01*
X00975000Y01600000D02*
X00975000Y01025000D01*
X00850000Y00900000D01*
X00650000Y01000000D02*
X00650000Y00450000D01*
X00550000Y00450000D02*
X00550000Y00625000D01*
X00450000Y00800000D01*
X00495952Y00839959D02*
X00600000Y00839959D01*
X00600000Y00869957D02*
X00503309Y00869957D01*
X00501500Y00865589D02*
X00485911Y00850000D01*
X00501500Y00834411D01*
X00510748Y00812084D01*
X00510748Y00794469D01*
X00590090Y00655620D01*
X00592388Y00653323D01*
X00594982Y00647059D01*
X00598346Y00641172D01*
X00598756Y00637948D01*
X00600000Y00634946D01*
X00600000Y00628165D01*
X00600000Y00628164D01*
X00600000Y00979289D01*
X00505073Y01074216D01*
X00501500Y01065589D01*
X00484411Y01048500D01*
X00474584Y01044430D01*
X00476598Y01043404D01*
X00483060Y01038708D01*
X00488708Y01033060D01*
X00493404Y01026598D01*
X00497030Y01019480D01*
X00499498Y01011883D01*
X00500748Y01003994D01*
X00500748Y01000000D01*
X00450001Y01000000D01*
X00450001Y00999999D01*
X00500748Y00999999D01*
X00500748Y00996006D01*
X00499498Y00988116D01*
X00497030Y00980519D01*
X00493404Y00973402D01*
X00488708Y00966940D01*
X00483060Y00961292D01*
X00476598Y00956596D01*
X00474584Y00955570D01*
X00484411Y00951500D01*
X00501500Y00934411D01*
X00510748Y00912084D01*
X00510748Y00887916D01*
X00501500Y00865589D01*
X00510748Y00899956D02*
X00600000Y00899956D01*
X00600000Y00929954D02*
X00503346Y00929954D01*
X00481217Y00959953D02*
X00600000Y00959953D01*
X00589338Y00989951D02*
X00499789Y00989951D01*
X00496791Y01019950D02*
X00559339Y01019950D01*
X00529341Y01049948D02*
X00485859Y01049948D01*
X00450000Y01100000D02*
X00375000Y01175000D01*
X00375000Y01325000D01*
X00425000Y01375000D01*
X00475000Y01375000D01*
X00450000Y01300000D02*
X00550000Y01200000D01*
X00450000Y01200000D02*
X00650000Y01000000D01*
X00600000Y00809960D02*
X00510748Y00809960D01*
X00519038Y00779962D02*
X00600000Y00779962D01*
X00600000Y00749963D02*
X00536180Y00749963D01*
X00553322Y00719965D02*
X00600000Y00719965D01*
X00600000Y00689966D02*
X00570464Y00689966D01*
X00587606Y00659968D02*
X00600000Y00659968D01*
X00600000Y00629969D02*
X00600000Y00629969D01*
X00450000Y00550000D02*
X00450000Y00450000D01*
X00450000Y00350000D02*
X00450000Y00250000D01*
X00500000Y00175000D02*
X00550000Y00325000D01*
X00550000Y00350000D01*
X00584367Y00269987D02*
X00595189Y00269987D01*
X00595189Y00239988D02*
X00574367Y00239988D01*
X00564368Y00209990D02*
X00600891Y00209990D01*
X00650000Y00250000D02*
X00650000Y00350000D01*
X00500000Y00175000D02*
X00300000Y00175000D01*
X00275000Y00300000D01*
X00275000Y00725000D01*
X00450000Y00900000D01*
X00396654Y00929954D02*
X00055000Y00929954D01*
X00055000Y00899956D02*
X00379245Y00899956D01*
X00349247Y00869957D02*
X00055000Y00869957D01*
X00055000Y00839959D02*
X00319248Y00839959D01*
X00289250Y00809960D02*
X00055000Y00809960D01*
X00055000Y00779962D02*
X00259251Y00779962D01*
X00231221Y00749963D02*
X00055000Y00749963D01*
X00055000Y00719965D02*
X00225000Y00719965D01*
X00225000Y00689966D02*
X00055000Y00689966D01*
X00055000Y00659968D02*
X00225000Y00659968D01*
X00225000Y00629969D02*
X00055000Y00629969D01*
X00055000Y00599970D02*
X00225000Y00599970D01*
X00225000Y00569972D02*
X00055000Y00569972D01*
X00055000Y00539973D02*
X00225000Y00539973D01*
X00225000Y00509975D02*
X00055000Y00509975D01*
X00055000Y00479976D02*
X00225000Y00479976D01*
X00225000Y00449978D02*
X00055000Y00449978D01*
X00055000Y00419979D02*
X00225000Y00419979D01*
X00225000Y00389981D02*
X00055000Y00389981D01*
X00055000Y00359982D02*
X00225000Y00359982D01*
X00225000Y00329984D02*
X00055000Y00329984D01*
X00055000Y00299985D02*
X00224028Y00299985D01*
X00230012Y00269987D02*
X00055000Y00269987D01*
X00055000Y00239988D02*
X00236012Y00239988D01*
X00242012Y00209990D02*
X00055000Y00209990D01*
X00055000Y00179991D02*
X00248011Y00179991D01*
X00256239Y00149993D02*
X00055000Y00149993D01*
X00055000Y00959953D02*
X00418782Y00959953D01*
X00400211Y00989951D02*
X00055000Y00989951D01*
X00055000Y01019950D02*
X00403209Y01019950D01*
X00414141Y01049948D02*
X00055000Y01049948D01*
X00055000Y01079947D02*
X00392553Y01079947D01*
X00369344Y01109945D02*
X00055000Y01109945D01*
X00055000Y01139944D02*
X00339345Y01139944D01*
X00325000Y01169942D02*
X00055000Y01169942D01*
X00055000Y01199941D02*
X00325000Y01199941D01*
X00325000Y01229939D02*
X00055000Y01229939D01*
X00055000Y01259938D02*
X00325000Y01259938D01*
X00325000Y01289937D02*
X00055000Y01289937D01*
X00055000Y01319935D02*
X00325000Y01319935D01*
X00331208Y01349934D02*
X00055000Y01349934D01*
X00055000Y01379932D02*
X00359221Y01379932D01*
X00389220Y01409931D02*
X00055000Y01409931D01*
X00055000Y01439929D02*
X00564360Y01439929D01*
X00534362Y01469928D02*
X00055000Y01469928D01*
X00055000Y01499926D02*
X00504363Y01499926D01*
X00474365Y01529925D02*
X00055000Y01529925D01*
X00055000Y01559923D02*
X00444366Y01559923D01*
X00414368Y01589922D02*
X00055000Y01589922D01*
X00055000Y01619920D02*
X00384369Y01619920D01*
X00354371Y01649919D02*
X00055000Y01649919D01*
X00055000Y01679917D02*
X00324372Y01679917D01*
X00275203Y01709916D02*
X00055000Y01709916D01*
X00055000Y01739914D02*
X00153875Y01739914D01*
X00152960Y01741174D02*
X00158048Y01734170D01*
X00164170Y01728048D01*
X00171174Y01722960D01*
X00178887Y01719030D01*
X00187121Y01716354D01*
X00195671Y01715000D01*
X00199999Y01715000D01*
X00199999Y01799999D01*
X00145000Y01799999D01*
X00145000Y01765671D01*
X00146354Y01757121D01*
X00149030Y01748887D01*
X00152960Y01741174D01*
X00145000Y01769913D02*
X00055000Y01769913D01*
X00055000Y01799911D02*
X00145000Y01799911D01*
X00145000Y01829910D02*
X00055000Y01829910D01*
X00055000Y01859908D02*
X00153746Y01859908D01*
X00199999Y01859908D02*
X00200000Y01859908D01*
X00199999Y01829910D02*
X00200000Y01829910D01*
X00199999Y01799911D02*
X00200000Y01799911D01*
X00199999Y01769913D02*
X00200000Y01769913D01*
X00199999Y01739914D02*
X00200000Y01739914D01*
X00300000Y01775000D02*
X00300000Y01800000D01*
X00300000Y01775000D02*
X00775000Y01300000D01*
X00850000Y01300000D01*
X00814089Y01250000D02*
X00814089Y01250000D01*
X00850000Y01200000D02*
X00925000Y01275000D01*
X00925000Y01325000D01*
X01350000Y01200000D02*
X01450000Y01100000D01*
X01630774Y01289937D02*
X01689252Y01289937D01*
X01704151Y01259938D02*
X01660773Y01259938D01*
X01690771Y01229939D02*
X01696648Y01229939D01*
X01750000Y01200000D02*
X01825000Y01275000D01*
X01825000Y01425000D01*
X01799999Y01829910D02*
X01800000Y01829910D01*
X01799999Y01859908D02*
X01800000Y01859908D01*
X02082008Y01949904D02*
X00055000Y01949904D01*
X00055000Y01979903D02*
X02082008Y01979903D01*
X01675000Y00775000D02*
X01850000Y00600000D01*
X01850000Y00450000D01*
D15*
X01450000Y01100000D03*
X01450000Y01250000D03*
X00550000Y01200000D03*
X00450000Y00550000D03*
X00450000Y00250000D03*
X00650000Y00250000D03*
M02*
