G75*
%MOIN*%
%OFA0B0*%
%FSLAX26Y26*%
%IPPOS*%
%LPD*%
%AMOC8*
5,1,8,0,0,1.08239X$1,22.5*
%
%ADD10C,0.051496*%
%ADD11OC8,0.074000*%
%ADD12C,0.060000*%
%ADD13OC8,0.060000*%
%ADD14R,0.039622X0.039622*%
%ADD15C,0.030000*%
D10*
X00450000Y00800000D03*
X00450000Y00900000D03*
X00450000Y01000000D03*
X00450000Y01100000D03*
X00450000Y01200000D03*
X00450000Y01300000D03*
X00850000Y01300000D03*
X00850000Y01200000D03*
X00850000Y01100000D03*
X00850000Y01000000D03*
X00850000Y00900000D03*
X00850000Y00800000D03*
X01350000Y00800000D03*
X01350000Y00900000D03*
X01350000Y01000000D03*
X01350000Y01100000D03*
X01350000Y01200000D03*
X01350000Y01300000D03*
X01750000Y01300000D03*
X01750000Y01200000D03*
X01750000Y01100000D03*
X01750000Y01000000D03*
X01750000Y00900000D03*
X01750000Y00800000D03*
D11*
X00350000Y00350000D03*
X00450000Y00350000D03*
X00450000Y00450000D03*
X00350000Y00450000D03*
X00550000Y00450000D03*
X00650000Y00450000D03*
X00650000Y00350000D03*
X00550000Y00350000D03*
X00750000Y00350000D03*
X00750000Y00450000D03*
D12*
X00700000Y01770000D02*
X00700000Y01830000D01*
X00800000Y01830000D02*
X00800000Y01770000D01*
X00900000Y01770000D02*
X00900000Y01830000D01*
X01250000Y01830000D02*
X01250000Y01770000D01*
X01350000Y01770000D02*
X01350000Y01830000D01*
X01450000Y01830000D02*
X01450000Y01770000D01*
X01800000Y01770000D02*
X01800000Y01830000D01*
X01900000Y01830000D02*
X01900000Y01770000D01*
X02000000Y01770000D02*
X02000000Y01830000D01*
X00400000Y01830000D02*
X00400000Y01770000D01*
X00300000Y01770000D02*
X00300000Y01830000D01*
X00200000Y01830000D02*
X00200000Y01770000D01*
D13*
X01350000Y00450000D03*
X01350000Y00350000D03*
X01450000Y00350000D03*
X01550000Y00350000D03*
X01550000Y00450000D03*
X01450000Y00450000D03*
X01650000Y00450000D03*
X01750000Y00450000D03*
X01750000Y00350000D03*
X01650000Y00350000D03*
X01850000Y00350000D03*
X01850000Y00450000D03*
D14*
X01450000Y01100000D03*
X01450000Y01250000D03*
X00550000Y01200000D03*
X00450000Y00550000D03*
X00450000Y00250000D03*
X00650000Y00250000D03*
D15*
X00800000Y00250000D01*
X00900000Y00350000D01*
X00900000Y00600000D01*
X01050000Y00750000D01*
X01050000Y01350000D01*
X00950000Y01450000D01*
X00800000Y01450000D01*
X00550000Y01200000D01*
X00350000Y01600000D02*
X00100000Y01350000D01*
X00100000Y00800000D01*
X00350000Y00550000D01*
X00450000Y00550000D01*
X00450000Y00250000D02*
X00450000Y00150000D01*
X00900000Y00150000D01*
X00900000Y00250000D01*
X01150000Y00500000D01*
X01150000Y01250000D01*
X01350000Y01450000D01*
X01450000Y01450000D01*
X01450000Y01250000D01*
X01450000Y01100000D02*
X01500000Y01100000D01*
X01650000Y01250000D01*
X01650000Y01400000D01*
X01450000Y01600000D01*
X00350000Y01600000D01*
M02*
